<svg xmlns="http://www.w3.org/2000/svg" xmlns:xlink="http://www.w3.org/1999/xlink" width="250" zoomAndPan="magnify" viewBox="0 0 187.5 187.499992" height="250" preserveAspectRatio="xMidYMid meet" version="1.0"><defs><clipPath id="1bf7adfc81"><path d="M 33.894531 19.332031 L 152.824219 19.332031 L 152.824219 167.671875 L 33.894531 167.671875 Z M 33.894531 19.332031 " clip-rule="nonzero"/></clipPath></defs><path fill="#3d94c3" d="M 135.992188 164.140625 C 135.984375 164.125 135.976562 164.105469 135.96875 164.085938 C 135.632812 163.300781 134.859375 162.792969 134.003906 162.792969 L 78.5625 162.792969 C 78.652344 160.84375 78.78125 158.816406 79.015625 156.71875 C 79.183594 155.054688 79.40625 153.351562 79.6875 151.613281 L 125.558594 151.613281 C 127.269531 151.613281 128.289062 149.699219 127.335938 148.273438 C 127.328125 148.257812 127.316406 148.242188 127.304688 148.226562 C 126.910156 147.632812 126.242188 147.273438 125.527344 147.273438 L 80.496094 147.273438 C 80.8125 145.78125 81.167969 144.269531 81.566406 142.738281 C 81.644531 142.4375 81.726562 142.128906 81.808594 141.824219 C 81.894531 141.519531 81.980469 141.21875 82.066406 140.914062 C 82.242188 140.300781 82.417969 139.683594 82.59375 139.070312 C 82.789062 138.453125 82.984375 137.835938 83.183594 137.21875 C 83.292969 136.847656 83.414062 136.472656 83.542969 136.101562 L 111.648438 136.101562 C 113.613281 136.101562 114.539062 133.667969 113.078125 132.355469 C 113.058594 132.339844 113.042969 132.324219 113.027344 132.308594 C 112.632812 131.957031 112.125 131.761719 111.597656 131.761719 L 85.09375 131.761719 C 85.113281 131.703125 85.136719 131.652344 85.15625 131.59375 C 85.390625 130.964844 85.65625 130.335938 85.90625 129.707031 L 86.28125 128.753906 L 86.683594 127.804688 C 87.679688 125.414062 88.785156 123.007812 89.953125 120.585938 C 90.019531 120.441406 90.089844 120.296875 90.164062 120.152344 C 90.789062 118.851562 91.441406 117.550781 92.113281 116.25 C 92.765625 114.964844 93.441406 113.683594 94.128906 112.398438 C 94.871094 111.011719 95.628906 109.617188 96.398438 108.21875 C 96.046875 107.992188 95.691406 107.765625 95.332031 107.535156 C 93.503906 106.363281 91.660156 105.1875 89.796875 104.007812 C 88.777344 103.359375 87.753906 102.707031 86.730469 102.050781 C 86.476562 101.890625 86.222656 101.730469 85.972656 101.566406 C 85.367188 102.730469 84.769531 103.898438 84.1875 105.070312 C 83.886719 105.664062 83.59375 106.261719 83.304688 106.859375 C 82.621094 108.257812 81.96875 109.671875 81.316406 111.074219 C 80.6875 112.496094 80.0625 113.90625 79.476562 115.332031 C 79.347656 115.636719 79.222656 115.945312 79.101562 116.25 C 78.515625 117.691406 77.953125 119.136719 77.425781 120.585938 C 77.015625 121.699219 76.636719 122.808594 76.273438 123.925781 C 75.417969 126.542969 74.648438 129.160156 74.035156 131.761719 C 73.972656 132.011719 73.917969 132.265625 73.859375 132.515625 C 73.5625 133.710938 73.335938 134.914062 73.101562 136.101562 C 73.058594 136.324219 73.011719 136.546875 72.96875 136.765625 C 72.746094 138.179688 72.46875 139.566406 72.324219 140.957031 C 72.242188 141.648438 72.15625 142.335938 72.074219 143.019531 C 72.011719 143.703125 71.953125 144.382812 71.890625 145.054688 C 71.859375 145.390625 71.832031 145.726562 71.800781 146.0625 C 71.785156 146.398438 71.761719 146.730469 71.746094 147.0625 C 71.742188 147.136719 71.738281 147.203125 71.734375 147.273438 C 71.699219 147.867188 71.671875 148.457031 71.652344 149.039062 C 71.636719 149.910156 71.628906 150.765625 71.625 151.613281 C 71.621094 152.042969 71.625 152.46875 71.628906 152.894531 C 71.644531 153.523438 71.664062 154.144531 71.679688 154.761719 C 71.6875 155.070312 71.699219 155.375 71.710938 155.679688 C 71.722656 155.984375 71.753906 156.285156 71.773438 156.585938 C 71.875 157.789062 71.929688 158.96875 72.082031 160.109375 C 72.191406 161.027344 72.269531 161.921875 72.402344 162.792969 C 72.433594 163.015625 72.46875 163.230469 72.507812 163.449219 C 72.707031 164.726562 72.925781 165.953125 73.160156 167.132812 C 73.320312 167.949219 73.488281 168.746094 73.664062 169.519531 C 73.898438 170.457031 74.128906 171.363281 74.347656 172.238281 C 74.554688 173.109375 74.835938 173.9375 75.066406 174.734375 C 75.527344 176.332031 76.046875 177.769531 76.507812 179.0625 C 76.953125 180.355469 77.441406 181.484375 77.835938 182.46875 C 78.222656 183.460938 78.617188 184.277344 78.921875 184.941406 C 79.222656 185.609375 79.472656 186.113281 79.632812 186.453125 C 79.792969 186.792969 79.875 186.96875 79.875 186.96875 C 79.875 186.96875 79.785156 186.195312 79.617188 184.742188 C 79.425781 183.304688 79.210938 181.179688 78.957031 178.511719 C 78.867188 177.167969 78.703125 175.703125 78.644531 174.09375 C 78.625 173.695312 78.605469 173.285156 78.585938 172.867188 C 78.558594 172.457031 78.53125 172.03125 78.527344 171.601562 C 78.503906 170.738281 78.480469 169.847656 78.460938 168.925781 C 78.460938 168.339844 78.460938 167.742188 78.464844 167.132812 L 134.027344 167.132812 C 135.5625 167.132812 136.597656 165.554688 135.992188 164.140625 " fill-opacity="1" fill-rule="nonzero"/><path fill="#3d94c3" d="M 123.292969 37.960938 C 123.285156 38.195312 123.273438 38.433594 123.261719 38.671875 C 123.246094 39.09375 123.226562 39.515625 123.203125 39.9375 C 123.183594 40.269531 123.164062 40.601562 123.144531 40.941406 C 123.085938 41.613281 123.015625 42.28125 122.988281 42.984375 C 122.976562 42.996094 122.96875 43.003906 122.957031 43.011719 C 122.929688 43.335938 122.902344 43.65625 122.871094 43.984375 C 122.789062 44.664062 122.707031 45.351562 122.621094 46.042969 C 122.472656 47.429688 122.203125 48.816406 121.976562 50.230469 C 121.710938 51.535156 121.476562 52.867188 121.160156 54.1875 C 121.132812 54.285156 121.113281 54.382812 121.085938 54.480469 C 120.785156 55.828125 120.4375 57.175781 120.058594 58.527344 C 119.632812 60.039062 119.167969 61.554688 118.671875 63.074219 C 117.953125 65.292969 117.144531 67.503906 116.269531 69.703125 C 116.007812 70.359375 115.742188 71.011719 115.476562 71.664062 C 115.148438 72.460938 114.808594 73.253906 114.464844 74.042969 C 114.191406 74.667969 113.910156 75.296875 113.632812 75.921875 C 112.984375 77.328125 112.332031 78.742188 111.648438 80.136719 C 110.824219 81.839844 109.972656 83.535156 109.09375 85.21875 C 108.527344 86.3125 107.953125 87.402344 107.371094 88.484375 C 107.183594 88.84375 106.988281 89.199219 106.796875 89.558594 C 106.101562 90.847656 105.394531 92.136719 104.6875 93.414062 C 104.101562 94.472656 103.515625 95.523438 102.929688 96.574219 C 102.773438 96.851562 102.621094 97.117188 102.464844 97.394531 C 102.117188 97.15625 101.769531 96.921875 101.421875 96.6875 C 99.464844 95.378906 97.503906 94.097656 95.539062 92.832031 C 94.839844 92.382812 94.144531 91.933594 93.453125 91.488281 C 92.957031 91.175781 92.460938 90.859375 91.96875 90.542969 C 91.992188 90.507812 92.011719 90.46875 92.03125 90.429688 C 92.199219 90.136719 92.363281 89.847656 92.527344 89.558594 C 93.078125 88.570312 93.636719 87.585938 94.191406 86.601562 C 94.453125 86.140625 94.710938 85.679688 94.972656 85.21875 C 95.625 84.058594 96.28125 82.902344 96.921875 81.753906 C 98.265625 79.351562 99.582031 76.976562 100.84375 74.609375 C 100.941406 74.417969 101.046875 74.234375 101.144531 74.042969 C 101.917969 72.59375 102.675781 71.148438 103.402344 69.703125 C 103.886719 68.753906 104.351562 67.804688 104.808594 66.859375 C 106.0625 64.289062 107.238281 61.738281 108.292969 59.203125 C 108.386719 58.976562 108.480469 58.75 108.574219 58.527344 L 79.121094 58.527344 C 78.621094 58.527344 78.136719 58.351562 77.753906 58.03125 C 77.734375 58.019531 77.71875 58.003906 77.699219 57.988281 C 76.15625 56.703125 77.0625 54.1875 79.070312 54.1875 L 110.277344 54.1875 C 110.59375 53.34375 110.894531 52.496094 111.179688 51.65625 C 111.398438 51.03125 111.609375 50.414062 111.796875 49.789062 C 111.992188 49.167969 112.191406 48.550781 112.386719 47.9375 C 112.5625 47.320312 112.738281 46.703125 112.910156 46.09375 C 113 45.789062 113.089844 45.484375 113.175781 45.179688 C 113.253906 44.875 113.332031 44.570312 113.410156 44.265625 C 113.523438 43.847656 113.625 43.429688 113.730469 43.011719 L 63.585938 43.011719 C 62.921875 43.011719 62.289062 42.707031 61.886719 42.179688 C 61.875 42.164062 61.863281 42.148438 61.855469 42.136719 C 60.769531 40.722656 61.792969 38.671875 63.574219 38.671875 L 114.695312 38.671875 C 115.273438 35.789062 115.691406 32.980469 115.960938 30.285156 C 116.0625 29.34375 116.148438 28.414062 116.21875 27.5 L 54.230469 27.5 C 53.398438 27.5 52.644531 27.019531 52.296875 26.269531 C 52.285156 26.25 52.277344 26.230469 52.273438 26.214844 C 51.605469 24.792969 52.640625 23.160156 54.203125 23.160156 L 116.457031 23.160156 C 116.519531 21.386719 116.535156 19.691406 116.519531 18.074219 C 116.492188 17.152344 116.46875 16.261719 116.445312 15.402344 C 116.445312 14.96875 116.414062 14.546875 116.390625 14.128906 C 116.367188 13.714844 116.347656 13.308594 116.324219 12.90625 C 116.316406 12.59375 116.300781 12.285156 116.28125 11.984375 L 47.558594 11.984375 C 46.632812 11.984375 45.816406 11.386719 45.523438 10.507812 C 45.515625 10.492188 45.511719 10.480469 45.511719 10.464844 C 45.042969 9.078125 46.082031 7.644531 47.542969 7.644531 L 115.929688 7.644531 C 115.714844 5.375 115.523438 3.554688 115.347656 2.257812 C 115.175781 0.808594 115.085938 0.03125 115.085938 0.03125 C 115.085938 0.03125 115.417969 0.738281 116.039062 2.0625 C 116.34375 2.722656 116.738281 3.527344 117.117188 4.523438 C 117.480469 5.429688 117.929688 6.46875 118.347656 7.644531 C 118.378906 7.742188 118.414062 7.84375 118.449219 7.945312 C 118.878906 9.15625 119.367188 10.5 119.796875 11.984375 C 119.828125 12.078125 119.855469 12.171875 119.882812 12.269531 C 120.121094 13.066406 120.394531 13.894531 120.605469 14.769531 C 120.824219 15.640625 121.050781 16.546875 121.289062 17.484375 C 121.691406 19.253906 122.0625 21.148438 122.375 23.160156 C 122.589844 24.554688 122.78125 26 122.929688 27.5 C 123.027344 28.449219 123.109375 29.421875 123.171875 30.414062 C 123.226562 31.015625 123.253906 31.625 123.265625 32.238281 C 123.285156 32.859375 123.300781 33.480469 123.320312 34.109375 C 123.335938 35.363281 123.316406 36.652344 123.292969 37.960938 " fill-opacity="1" fill-rule="nonzero"/><path fill="#244581" d="M 107.371094 88.484375 C 107.183594 88.84375 106.988281 89.199219 106.796875 89.558594 C 106.101562 90.847656 105.394531 92.136719 104.6875 93.414062 C 104.101562 94.472656 103.515625 95.523438 102.929688 96.574219 C 102.773438 96.851562 102.621094 97.117188 102.464844 97.394531 C 102.117188 97.15625 101.769531 96.921875 101.421875 96.6875 C 99.464844 95.378906 97.503906 94.097656 95.539062 92.832031 C 94.839844 92.382812 94.144531 91.933594 93.453125 91.488281 C 92.957031 91.175781 92.460938 90.859375 91.96875 90.542969 C 91.992188 90.507812 92.011719 90.46875 92.03125 90.429688 C 92.199219 90.136719 92.363281 89.847656 92.527344 89.558594 C 93.078125 88.570312 93.636719 87.585938 94.191406 86.601562 C 94.453125 86.140625 94.710938 85.679688 94.972656 85.21875 C 95.625 84.058594 96.28125 82.902344 96.921875 81.753906 C 97.351562 82.023438 97.78125 82.296875 98.214844 82.570312 C 99.058594 83.105469 99.898438 83.640625 100.742188 84.183594 C 101.433594 84.628906 102.132812 85.074219 102.828125 85.527344 C 104.347656 86.5 105.859375 87.484375 107.371094 88.484375 " fill-opacity="1" fill-rule="nonzero"/><g clip-path="url(#1bf7adfc81)"><path fill="#68c8f0" d="M 152.824219 167.625 C 152.824219 167.625 152.757812 167.457031 152.628906 167.132812 C 152.492188 166.78125 152.28125 166.242188 152.003906 165.539062 C 151.730469 164.792969 151.371094 163.875 150.929688 162.792969 C 150.558594 161.878906 150.136719 160.859375 149.664062 159.726562 C 149.113281 158.503906 148.570312 157.128906 147.867188 155.683594 C 147.695312 155.320312 147.523438 154.953125 147.34375 154.570312 C 147.167969 154.195312 146.996094 153.808594 146.796875 153.425781 C 146.503906 152.839844 146.199219 152.234375 145.894531 151.613281 C 145.796875 151.425781 145.703125 151.226562 145.605469 151.035156 C 144.972656 149.820312 144.289062 148.5625 143.5625 147.273438 C 142.320312 145.101562 140.941406 142.832031 139.375 140.527344 C 138.394531 139.0625 137.332031 137.582031 136.199219 136.101562 C 135.09375 134.65625 133.914062 133.203125 132.660156 131.761719 C 131.980469 130.96875 131.277344 130.183594 130.554688 129.398438 C 130.34375 129.167969 130.128906 128.9375 129.917969 128.703125 C 129.695312 128.476562 129.472656 128.25 129.253906 128.023438 C 128.8125 127.566406 128.367188 127.105469 127.925781 126.644531 C 127.464844 126.195312 127 125.742188 126.53125 125.289062 C 126.074219 124.832031 125.59375 124.382812 125.109375 123.933594 C 123.90625 122.804688 122.652344 121.691406 121.355469 120.585938 C 120.589844 119.9375 119.808594 119.289062 119.019531 118.644531 C 118.035156 117.835938 117.023438 117.039062 115.992188 116.25 C 114.804688 115.335938 113.585938 114.429688 112.347656 113.535156 C 110.046875 111.851562 107.652344 110.207031 105.203125 108.570312 C 103.453125 107.398438 101.671875 106.234375 99.863281 105.070312 C 99.445312 104.796875 99.023438 104.53125 98.601562 104.257812 C 96.773438 103.085938 94.925781 101.914062 93.066406 100.730469 C 92.042969 100.082031 91.023438 99.429688 89.996094 98.777344 C 89.367188 98.371094 88.734375 97.964844 88.097656 97.558594 C 84.097656 94.976562 80.082031 92.339844 76.171875 89.558594 C 75.636719 89.175781 75.101562 88.792969 74.570312 88.40625 C 73.3125 87.5 72.074219 86.558594 70.839844 85.628906 C 70.667969 85.492188 70.492188 85.351562 70.316406 85.21875 C 69.269531 84.398438 68.230469 83.585938 67.210938 82.742188 C 64.835938 80.78125 62.527344 78.78125 60.355469 76.679688 C 59.445312 75.808594 58.558594 74.929688 57.695312 74.042969 C 56.476562 72.796875 55.300781 71.53125 54.183594 70.238281 C 54.019531 70.0625 53.863281 69.882812 53.710938 69.703125 C 52.910156 68.785156 52.160156 67.832031 51.398438 66.910156 C 50.535156 65.765625 49.644531 64.675781 48.863281 63.515625 C 48.464844 62.949219 48.066406 62.382812 47.671875 61.820312 C 47.296875 61.242188 46.925781 60.675781 46.554688 60.109375 C 46.367188 59.824219 46.183594 59.542969 46 59.265625 C 45.851562 59.015625 45.703125 58.773438 45.554688 58.527344 C 45.53125 58.488281 45.507812 58.445312 45.480469 58.40625 C 45.136719 57.839844 44.796875 57.269531 44.464844 56.707031 C 44 55.859375 43.539062 55.023438 43.089844 54.1875 C 42.9375 53.898438 42.785156 53.609375 42.632812 53.320312 C 42.355469 52.757812 42.082031 52.199219 41.804688 51.648438 C 41.667969 51.371094 41.535156 51.097656 41.398438 50.824219 C 41.265625 50.550781 41.152344 50.265625 41.027344 49.992188 C 40.550781 48.882812 40.046875 47.816406 39.644531 46.738281 C 39.230469 45.660156 38.785156 44.636719 38.453125 43.59375 C 38.382812 43.398438 38.316406 43.207031 38.25 43.011719 C 37.738281 41.515625 37.292969 40.066406 36.890625 38.671875 C 36.796875 38.34375 36.703125 38.015625 36.617188 37.691406 C 36.382812 36.753906 36.160156 35.847656 35.945312 34.972656 C 35.714844 34.101562 35.574219 33.242188 35.40625 32.429688 C 35.058594 30.804688 34.839844 29.292969 34.636719 27.933594 C 34.613281 27.785156 34.589844 27.640625 34.574219 27.5 C 34.402344 26.316406 34.3125 25.238281 34.207031 24.296875 C 34.160156 23.898438 34.125 23.519531 34.101562 23.160156 C 34.054688 22.582031 34.03125 22.058594 34.003906 21.605469 C 33.957031 20.875 33.9375 20.3125 33.917969 19.9375 C 33.902344 19.5625 33.894531 19.363281 33.894531 19.363281 C 33.894531 19.363281 34.179688 20.09375 34.710938 21.453125 C 34.894531 21.941406 35.117188 22.515625 35.375 23.160156 C 35.828125 24.300781 36.398438 25.675781 37.058594 27.261719 C 37.09375 27.339844 37.128906 27.417969 37.164062 27.5 C 37.683594 28.664062 38.203125 29.953125 38.863281 31.304688 C 39.03125 31.667969 39.207031 32.035156 39.382812 32.414062 C 39.554688 32.792969 39.730469 33.175781 39.925781 33.5625 C 40.3125 34.332031 40.714844 35.128906 41.125 35.953125 C 41.558594 36.757812 42.003906 37.59375 42.460938 38.453125 C 42.5 38.527344 42.542969 38.597656 42.582031 38.671875 C 42.660156 38.8125 42.734375 38.957031 42.808594 39.097656 C 42.933594 39.3125 43.058594 39.523438 43.183594 39.742188 C 43.433594 40.171875 43.6875 40.605469 43.945312 41.046875 C 44.328125 41.695312 44.71875 42.351562 45.128906 43.011719 C 45.824219 44.148438 46.5625 45.296875 47.355469 46.453125 C 49.070312 49.011719 51.019531 51.609375 53.1875 54.1875 C 54.144531 55.320312 55.140625 56.453125 56.179688 57.582031 C 56.390625 57.808594 56.601562 58.042969 56.816406 58.273438 C 56.898438 58.359375 56.980469 58.441406 57.0625 58.527344 C 57.195312 58.667969 57.335938 58.8125 57.476562 58.957031 C 57.917969 59.414062 58.359375 59.871094 58.808594 60.335938 C 59.269531 60.78125 59.734375 61.234375 60.199219 61.6875 C 60.65625 62.148438 61.132812 62.597656 61.617188 63.039062 C 62.578125 63.941406 63.578125 64.824219 64.582031 65.714844 C 65.082031 66.164062 65.613281 66.589844 66.128906 67.03125 L 66.910156 67.6875 L 67.707031 68.335938 C 68.269531 68.792969 68.835938 69.253906 69.414062 69.703125 C 71.015625 70.972656 72.675781 72.214844 74.378906 73.445312 C 74.652344 73.644531 74.925781 73.847656 75.203125 74.042969 C 77.246094 75.519531 79.359375 76.96875 81.519531 78.40625 C 84.917969 80.691406 88.445312 82.945312 92.015625 85.21875 C 92.738281 85.679688 93.460938 86.136719 94.191406 86.601562 C 95.035156 87.136719 95.878906 87.671875 96.71875 88.214844 C 97.414062 88.660156 98.109375 89.105469 98.804688 89.558594 C 100.769531 90.820312 102.734375 92.101562 104.6875 93.414062 C 107.199219 95.09375 109.691406 96.808594 112.140625 98.59375 C 113.109375 99.292969 114.070312 100.011719 115.023438 100.730469 C 115.304688 100.945312 115.585938 101.15625 115.867188 101.371094 C 117.089844 102.328125 118.304688 103.277344 119.492188 104.257812 C 119.820312 104.527344 120.144531 104.796875 120.46875 105.070312 C 122.503906 106.769531 124.480469 108.515625 126.351562 110.328125 C 128.359375 112.253906 130.28125 114.21875 132.066406 116.25 C 132.21875 116.421875 132.371094 116.59375 132.519531 116.765625 C 133.5 117.847656 134.394531 118.992188 135.304688 120.09375 C 135.429688 120.257812 135.554688 120.421875 135.683594 120.585938 C 136.425781 121.554688 137.171875 122.496094 137.839844 123.484375 C 138.238281 124.054688 138.636719 124.617188 139.027344 125.179688 C 139.40625 125.757812 139.777344 126.328125 140.148438 126.890625 C 140.335938 127.175781 140.519531 127.457031 140.699219 127.738281 C 140.875 128.023438 141.050781 128.308594 141.222656 128.59375 C 141.566406 129.164062 141.902344 129.730469 142.234375 130.292969 C 142.507812 130.789062 142.773438 131.273438 143.039062 131.761719 C 143.394531 132.40625 143.738281 133.042969 144.066406 133.675781 C 144.347656 134.242188 144.621094 134.800781 144.898438 135.351562 C 145.023438 135.601562 145.148438 135.851562 145.265625 136.101562 C 145.410156 136.402344 145.542969 136.703125 145.671875 137.007812 C 147.3125 140.621094 148.554688 144.085938 149.507812 147.273438 C 149.714844 147.960938 149.910156 148.640625 150.085938 149.300781 C 150.285156 150.097656 150.476562 150.867188 150.664062 151.613281 C 150.695312 151.75 150.730469 151.886719 150.761719 152.023438 C 150.992188 152.894531 151.132812 153.75 151.300781 154.566406 C 151.648438 156.191406 151.871094 157.699219 152.074219 159.058594 C 152.289062 160.410156 152.386719 161.648438 152.503906 162.703125 C 152.507812 162.730469 152.511719 162.761719 152.515625 162.792969 C 152.632812 163.808594 152.664062 164.679688 152.710938 165.382812 C 152.75 166.167969 152.78125 166.757812 152.796875 167.132812 C 152.8125 167.457031 152.824219 167.625 152.824219 167.625 " fill-opacity="1" fill-rule="nonzero"/></g></svg>